<svg id="Layer_1" data-name="Layer 1" xmlns="http://www.w3.org/2000/svg" viewBox="0 0 179.8 194.38"><title>gearSettings</title><path d="M142.82,70.68V94.9a67.1,67.1,0,0,0-30.54,17.64l-21-12.13a7.91,7.91,0,0,0-10.76,2.88l-9.33,16.17a7.9,7.9,0,0,0,2.88,10.76l21,12.13a67.61,67.61,0,0,0,0,35.23L74,189.73a7.88,7.88,0,0,0-2.88,10.75l9.33,16.17a7.91,7.91,0,0,0,10.76,2.89l21.07-12.17A67.3,67.3,0,0,0,142.76,225v24.34a7.89,7.89,0,0,0,7.87,7.88H169.3a7.89,7.89,0,0,0,7.88-7.87V225a67.13,67.13,0,0,0,30.47-17.57l21.08,12.18a7.91,7.91,0,0,0,10.76-2.88l9.33-16.17a7.9,7.9,0,0,0-2.88-10.76l-21-12.15a67.57,67.57,0,0,0,0-35.22l21-12.14a7.88,7.88,0,0,0,2.88-10.75l-9.33-16.17a7.91,7.91,0,0,0-10.76-2.89l-21,12.12a67.23,67.23,0,0,0-30.52-17.67V70.69a7.89,7.89,0,0,0-7.87-7.88H150.7A7.89,7.89,0,0,0,142.82,70.68ZM201,159.88A40.87,40.87,0,1,1,160.17,119,40.87,40.87,0,0,1,201,159.88Z" transform="translate(-70.1 -62.81)" fill="silver"/></svg>