<svg id="Layer_1" data-name="Layer 1" xmlns="http://www.w3.org/2000/svg" width="20.47" height="28.41" viewBox="0 0 20.47 28.41">
  <title>Down Arrow</title>
  <g>
    <path d="M17.75,8V31.32c0,2.9,4.5,2.9,4.5,0V8c0-2.9-4.5-2.9-4.5,0h0Z" transform="translate(-9.77 -5.83)" fill="#39b54a"/>
    <path d="M10.44,25.83l8,7.77c2.08,2,5.26-1.16,3.18-3.18l-8-7.77c-2.08-2-5.26,1.16-3.18,3.18h0Z" transform="translate(-9.77 -5.83)" fill="#39b54a"/>
    <path d="M26.38,22.64l-8,7.77c-2.08,2,1.11,5.21,3.18,3.18l8-7.77c2.08-2-1.11-5.21-3.18-3.18h0Z" transform="translate(-9.77 -5.83)" fill="#39b54a"/>
  </g>
</svg>
