<svg id="Layer_1" data-name="Layer 1" xmlns="http://www.w3.org/2000/svg" width="318" height="318" viewBox="0 0 318 318">
  <title>leaf_grey</title>
  <circle cx="159" cy="159" r="154" fill="#808285" stroke="#414042" stroke-miterlimit="10" stroke-width="10"/>
  <g>
    <path d="M105.5,106.67c-3.27,2.66-7.55,5.9-9.85,8.76C98.94,118.19,104.28,108.91,105.5,106.67Z" transform="translate(-1.25 -1.17)" fill="none"/>
    <path d="M90.34,117.55c-6.87,8.56-9.43,15.64-11.76,27.06-8,39.27,18.14,77.79,58.45,86,4.41,0.9,9.14,2.31,13.5,2.48a2.81,2.81,0,0,1,.57.08c19.72,4.84,39.13,8.36,55.14,20.44A71.1,71.1,0,0,1,223,271.71a3,3,0,0,0,5.5-1c2.5-11.83,3.3-24,4.09-36.11,1-15.63,2-31.36.3-46.93-1.14-10.21-1.17-19.82-3.35-30a2.39,2.39,0,0,1,0-.26c-3.3-32.77-28.67-63.74-63.44-69C156,86.89,142,87.23,131.85,89.78A3.06,3.06,0,0,0,130,94.31c5,8.54,19.46,14,25.63,21.63,9.73,12,18.94,22.49,27.72,35.23s8.92,30.7,12.34,45.39a1,1,0,0,1-1.91.71c-17.59-34.45-42.84-62-74.33-84.5-2.23-1.59-4.93-3.6-7.2-4.95a33.92,33.92,0,0,0-7.87-3.63h0C96.58,100.5,90.49,94,86.5,85.5c-4.13-8.74-10.85-17-10.71-26.7a2.72,2.72,0,0,0-.66-2.26,2.11,2.11,0,0,0-1.26-.37,33.52,33.52,0,0,0-9.2,1.32c-1.85.64-7,3.56-6.67,5.67,0.69,5,5.32,15.29,7.17,20a97.56,97.56,0,0,0,11.5,20.5c3.34,4.75,9.21,10.14,13.66,13.88" transform="translate(-1.25 -1.17)" fill="#f1f2f2"/>
  </g>
</svg>
